<svg xmlns="http://www.w3.org/2000/svg" width="1200" height="720" viewBox="0 0 1200 720">
    <rect width="1200" height="720" fill="#eef3f8"/>
    
    <rect x="24" y="24" width="192" height="672" rx="22" fill="#111827" stroke="#111827"/>
    <text x="52" y="72" font-family="Inter, Arial, sans-serif" font-size="24" fill="#ffffff" font-weight="800">HighLevel</text>
    <text x="52" y="100" font-family="Inter, Arial, sans-serif" font-size="12" fill="#9ca3af" font-weight="600">Training sub-account</text>
    
          <rect x="44" y="138" width="144" height="34" rx="8" fill="#111827" stroke="#374151"/>
          <circle cx="62" cy="155" r="5" fill="#6b7280"/>
          <text x="76" y="160" font-family="Inter, Arial, sans-serif" font-size="13" fill="#d1d5db" font-weight="600">Launchpad</text>
        
          <rect x="44" y="186" width="144" height="34" rx="8" fill="#111827" stroke="#374151"/>
          <circle cx="62" cy="203" r="5" fill="#6b7280"/>
          <text x="76" y="208" font-family="Inter, Arial, sans-serif" font-size="13" fill="#d1d5db" font-weight="600">Dashboard</text>
        
          <rect x="44" y="234" width="144" height="34" rx="8" fill="#111827" stroke="#374151"/>
          <circle cx="62" cy="251" r="5" fill="#6b7280"/>
          <text x="76" y="256" font-family="Inter, Arial, sans-serif" font-size="13" fill="#d1d5db" font-weight="600">Conversations</text>
        
          <rect x="44" y="282" width="144" height="34" rx="8" fill="#111827" stroke="#374151"/>
          <circle cx="62" cy="299" r="5" fill="#6b7280"/>
          <text x="76" y="304" font-family="Inter, Arial, sans-serif" font-size="13" fill="#d1d5db" font-weight="600">Contacts</text>
        
          <rect x="44" y="330" width="144" height="34" rx="8" fill="#111827" stroke="#374151"/>
          <circle cx="62" cy="347" r="5" fill="#6b7280"/>
          <text x="76" y="352" font-family="Inter, Arial, sans-serif" font-size="13" fill="#d1d5db" font-weight="600">Opportunities</text>
        
          <rect x="44" y="378" width="144" height="34" rx="8" fill="#0ea5a3" stroke="#0ea5a3"/>
          <circle cx="62" cy="395" r="5" fill="#ffffff"/>
          <text x="76" y="400" font-family="Inter, Arial, sans-serif" font-size="13" fill="#ffffff" font-weight="800">Calendars</text>
        
          <rect x="44" y="426" width="144" height="34" rx="8" fill="#111827" stroke="#374151"/>
          <circle cx="62" cy="443" r="5" fill="#6b7280"/>
          <text x="76" y="448" font-family="Inter, Arial, sans-serif" font-size="13" fill="#d1d5db" font-weight="600">Sites</text>
        
          <rect x="44" y="474" width="144" height="34" rx="8" fill="#111827" stroke="#374151"/>
          <circle cx="62" cy="491" r="5" fill="#6b7280"/>
          <text x="76" y="496" font-family="Inter, Arial, sans-serif" font-size="13" fill="#d1d5db" font-weight="600">Automation</text>
        
          <rect x="44" y="522" width="144" height="34" rx="8" fill="#111827" stroke="#374151"/>
          <circle cx="62" cy="539" r="5" fill="#6b7280"/>
          <text x="76" y="544" font-family="Inter, Arial, sans-serif" font-size="13" fill="#d1d5db" font-weight="600">Reporting</text>
        
          <rect x="44" y="570" width="144" height="34" rx="8" fill="#111827" stroke="#374151"/>
          <circle cx="62" cy="587" r="5" fill="#6b7280"/>
          <text x="76" y="592" font-family="Inter, Arial, sans-serif" font-size="13" fill="#d1d5db" font-weight="600">Settings</text>
        
  
    <rect x="240" y="24" width="936" height="672" rx="22" fill="#ffffff" stroke="#d7dde5"/>
    <text x="272" y="70" font-family="Inter, Arial, sans-serif" font-size="28" fill="#0f172a" font-weight="800">Calendar and booking setup</text>
    <text x="272" y="100" font-family="Inter, Arial, sans-serif" font-size="14" fill="#64748b" font-weight="600">Availability, appointment length, buffers, booking link, and reminders.</text>
    <rect x="1000" y="50" width="132" height="30" rx="15" fill="#fff7ed" stroke="#fed7aa"/><text x="1014" y="70" font-family="Inter, Arial, sans-serif" font-size="13" fill="#c2410c" font-weight="700">redacted demo</text>
    
      <rect x="272" y="132" width="430" height="488" rx="14" fill="#f8fafc" stroke="#d7dde5"/> <text x="302" y="174" font-family="Inter, Arial, sans-serif" font-size="22" fill="#0f172a" font-weight="800">Service calendar</text>
      <rect x="304" y="206" width="350" height="42" rx="14" fill="#ffffff" stroke="#d7dde5"/> <text x="326" y="233" font-family="Inter, Arial, sans-serif" font-size="15" fill="#334155" font-weight="700">Mon 9:00 AM - 5:00 PM</text><rect x="304" y="268" width="350" height="42" rx="14" fill="#ffffff" stroke="#d7dde5"/> <text x="326" y="295" font-family="Inter, Arial, sans-serif" font-size="15" fill="#334155" font-weight="700">Tue 9:00 AM - 5:00 PM</text><rect x="304" y="330" width="350" height="42" rx="14" fill="#ffffff" stroke="#d7dde5"/> <text x="326" y="357" font-family="Inter, Arial, sans-serif" font-size="15" fill="#dc2626" font-weight="700">Wed closed</text><rect x="304" y="392" width="350" height="42" rx="14" fill="#ffffff" stroke="#d7dde5"/> <text x="326" y="419" font-family="Inter, Arial, sans-serif" font-size="15" fill="#334155" font-weight="700">Thu 10:00 AM - 6:00 PM</text><rect x="304" y="454" width="350" height="42" rx="14" fill="#ffffff" stroke="#d7dde5"/> <text x="326" y="481" font-family="Inter, Arial, sans-serif" font-size="15" fill="#334155" font-weight="700">Fri 9:00 AM - 3:00 PM</text>
      <rect x="734" y="132" width="362" height="488" rx="14" fill="#ffffff" stroke="#d7dde5"/> <text x="766" y="174" font-family="Inter, Arial, sans-serif" font-size="22" fill="#0f172a" font-weight="800">Booking rules</text>
      <rect x="766" y="214" width="236" height="30" rx="15" fill="#eff6ff" stroke="#bfdbfe"/><text x="780" y="234" font-family="Inter, Arial, sans-serif" font-size="13" fill="#1d4ed8" font-weight="700">Appointment length: 45 min</text>
      <rect x="766" y="260" width="140" height="30" rx="15" fill="#f0fdfa" stroke="#99f6e4"/><text x="780" y="280" font-family="Inter, Arial, sans-serif" font-size="13" fill="#0f766e" font-weight="700">Buffer: 15 min</text>
      <rect x="766" y="306" width="156" height="30" rx="15" fill="#fff7ed" stroke="#fed7aa"/><text x="780" y="326" font-family="Inter, Arial, sans-serif" font-size="13" fill="#c2410c" font-weight="700">Confirmation SMS</text>
      <rect x="766" y="352" width="228" height="30" rx="15" fill="#fdf2f8" stroke="#fbcfe8"/><text x="780" y="372" font-family="Inter, Arial, sans-serif" font-size="13" fill="#be185d" font-weight="700">Reminder: 24 hours before</text>
      <rect x="766" y="430" width="286" height="90" rx="14" fill="#f8fafc" stroke="#d7dde5"/> <text x="790" y="462" font-family="Inter, Arial, sans-serif" font-size="16" fill="#0f172a" font-weight="800">Booking link preview</text> <text x="790" y="492" font-family="Inter, Arial, sans-serif" font-size="13" fill="#64748b" font-weight="600">demo.highlevel.com/book/grooming</text>
    
    <text x="272" y="668" font-family="Inter, Arial, sans-serif" font-size="14" fill="#64748b" font-weight="600">Training mockup. Replace this SVG with a redacted real GHL screenshot when available.</text>
  </svg>