<svg xmlns="http://www.w3.org/2000/svg" width="1200" height="720" viewBox="0 0 1200 720">
    <rect width="1200" height="720" fill="#eef3f8"/>
    
    <rect x="24" y="24" width="192" height="672" rx="22" fill="#111827" stroke="#111827"/>
    <text x="52" y="72" font-family="Inter, Arial, sans-serif" font-size="24" fill="#ffffff" font-weight="800">HighLevel</text>
    <text x="52" y="100" font-family="Inter, Arial, sans-serif" font-size="12" fill="#9ca3af" font-weight="600">Training sub-account</text>
    
          <rect x="44" y="138" width="144" height="34" rx="8" fill="#111827" stroke="#374151"/>
          <circle cx="62" cy="155" r="5" fill="#6b7280"/>
          <text x="76" y="160" font-family="Inter, Arial, sans-serif" font-size="13" fill="#d1d5db" font-weight="600">Launchpad</text>
        
          <rect x="44" y="186" width="144" height="34" rx="8" fill="#111827" stroke="#374151"/>
          <circle cx="62" cy="203" r="5" fill="#6b7280"/>
          <text x="76" y="208" font-family="Inter, Arial, sans-serif" font-size="13" fill="#d1d5db" font-weight="600">Dashboard</text>
        
          <rect x="44" y="234" width="144" height="34" rx="8" fill="#0ea5a3" stroke="#0ea5a3"/>
          <circle cx="62" cy="251" r="5" fill="#ffffff"/>
          <text x="76" y="256" font-family="Inter, Arial, sans-serif" font-size="13" fill="#ffffff" font-weight="800">Conversations</text>
        
          <rect x="44" y="282" width="144" height="34" rx="8" fill="#111827" stroke="#374151"/>
          <circle cx="62" cy="299" r="5" fill="#6b7280"/>
          <text x="76" y="304" font-family="Inter, Arial, sans-serif" font-size="13" fill="#d1d5db" font-weight="600">Contacts</text>
        
          <rect x="44" y="330" width="144" height="34" rx="8" fill="#111827" stroke="#374151"/>
          <circle cx="62" cy="347" r="5" fill="#6b7280"/>
          <text x="76" y="352" font-family="Inter, Arial, sans-serif" font-size="13" fill="#d1d5db" font-weight="600">Opportunities</text>
        
          <rect x="44" y="378" width="144" height="34" rx="8" fill="#111827" stroke="#374151"/>
          <circle cx="62" cy="395" r="5" fill="#6b7280"/>
          <text x="76" y="400" font-family="Inter, Arial, sans-serif" font-size="13" fill="#d1d5db" font-weight="600">Calendars</text>
        
          <rect x="44" y="426" width="144" height="34" rx="8" fill="#111827" stroke="#374151"/>
          <circle cx="62" cy="443" r="5" fill="#6b7280"/>
          <text x="76" y="448" font-family="Inter, Arial, sans-serif" font-size="13" fill="#d1d5db" font-weight="600">Sites</text>
        
          <rect x="44" y="474" width="144" height="34" rx="8" fill="#111827" stroke="#374151"/>
          <circle cx="62" cy="491" r="5" fill="#6b7280"/>
          <text x="76" y="496" font-family="Inter, Arial, sans-serif" font-size="13" fill="#d1d5db" font-weight="600">Automation</text>
        
          <rect x="44" y="522" width="144" height="34" rx="8" fill="#111827" stroke="#374151"/>
          <circle cx="62" cy="539" r="5" fill="#6b7280"/>
          <text x="76" y="544" font-family="Inter, Arial, sans-serif" font-size="13" fill="#d1d5db" font-weight="600">Reporting</text>
        
          <rect x="44" y="570" width="144" height="34" rx="8" fill="#111827" stroke="#374151"/>
          <circle cx="62" cy="587" r="5" fill="#6b7280"/>
          <text x="76" y="592" font-family="Inter, Arial, sans-serif" font-size="13" fill="#d1d5db" font-weight="600">Settings</text>
        
  
    <rect x="240" y="24" width="936" height="672" rx="22" fill="#ffffff" stroke="#d7dde5"/>
    <text x="272" y="70" font-family="Inter, Arial, sans-serif" font-size="28" fill="#0f172a" font-weight="800">Conversations inbox</text>
    <text x="272" y="100" font-family="Inter, Arial, sans-serif" font-size="14" fill="#64748b" font-weight="600">Where replies appear and where a human can take over.</text>
    <rect x="1000" y="50" width="132" height="30" rx="15" fill="#fff7ed" stroke="#fed7aa"/><text x="1014" y="70" font-family="Inter, Arial, sans-serif" font-size="13" fill="#c2410c" font-weight="700">redacted demo</text>
    
      <rect x="272" y="132" width="310" height="500" rx="14" fill="#f8fafc" stroke="#d7dde5"/> <text x="302" y="172" font-family="Inter, Arial, sans-serif" font-size="22" fill="#0f172a" font-weight="800">Inbox</text>
      <rect x="302" y="208" width="230" height="60" rx="10" fill="#ecfdf5" stroke="#34d399"/><text x="322" y="240" font-family="Inter, Arial, sans-serif" font-size="15" fill="#0f172a" font-weight="800">Jane Demo Lead</text><text x="322" y="258" font-family="Inter, Arial, sans-serif" font-size="12" fill="#64748b" font-weight="600">SMS thread</text><rect x="302" y="290" width="230" height="60" rx="10" fill="#ffffff" stroke="#d7dde5"/><text x="322" y="322" font-family="Inter, Arial, sans-serif" font-size="15" fill="#0f172a" font-weight="800">Marco Test Contact</text><text x="322" y="340" font-family="Inter, Arial, sans-serif" font-size="12" fill="#64748b" font-weight="600">SMS thread</text><rect x="302" y="372" width="230" height="60" rx="10" fill="#ffffff" stroke="#d7dde5"/><text x="322" y="404" font-family="Inter, Arial, sans-serif" font-size="15" fill="#0f172a" font-weight="800">Ava Seller Lead</text><text x="322" y="422" font-family="Inter, Arial, sans-serif" font-size="12" fill="#64748b" font-weight="600">SMS thread</text>
      <rect x="620" y="132" width="476" height="500" rx="14" fill="#ffffff" stroke="#d7dde5"/> <text x="650" y="172" font-family="Inter, Arial, sans-serif" font-size="22" fill="#0f172a" font-weight="800">Jane Demo Lead</text>
      <rect x="650" y="216" width="280" height="52" rx="14" fill="#f1f5f9" stroke="#d7dde5"/> <text x="670" y="248" font-family="Inter, Arial, sans-serif" font-size="15" fill="#334155" font-weight="600">Hi, is Tuesday available?</text>
      <rect x="760" y="292" width="280" height="62" rx="14" fill="#dcfce7" stroke="#bbf7d0"/> <text x="780" y="324" font-family="Inter, Arial, sans-serif" font-size="15" fill="#166534" font-weight="700">Yes. Want me to send</text> <text x="780" y="346" font-family="Inter, Arial, sans-serif" font-size="15" fill="#166534" font-weight="700">the booking link?</text>
      <rect x="650" y="420" width="390" height="74" rx="14" fill="#f8fafc" stroke="#d7dde5"/> <text x="674" y="452" font-family="Inter, Arial, sans-serif" font-size="15" fill="#64748b" font-weight="700">Reply box: staff can answer here</text>
      <rect x="650" y="530" width="204" height="30" rx="15" fill="#eff6ff" stroke="#bfdbfe"/><text x="664" y="550" font-family="Inter, Arial, sans-serif" font-size="13" fill="#1d4ed8" font-weight="700">Assigned to front desk</text>
    
    <text x="272" y="668" font-family="Inter, Arial, sans-serif" font-size="14" fill="#64748b" font-weight="600">Training mockup. Replace this SVG with a redacted real GHL screenshot when available.</text>
  </svg>