<svg xmlns="http://www.w3.org/2000/svg" width="1200" height="720" viewBox="0 0 1200 720">
    <rect width="1200" height="720" fill="#eef3f8"/>
    
    <rect x="24" y="24" width="192" height="672" rx="22" fill="#111827" stroke="#111827"/>
    <text x="52" y="72" font-family="Inter, Arial, sans-serif" font-size="24" fill="#ffffff" font-weight="800">HighLevel</text>
    <text x="52" y="100" font-family="Inter, Arial, sans-serif" font-size="12" fill="#9ca3af" font-weight="600">Training sub-account</text>
    
          <rect x="44" y="138" width="144" height="34" rx="8" fill="#111827" stroke="#374151"/>
          <circle cx="62" cy="155" r="5" fill="#6b7280"/>
          <text x="76" y="160" font-family="Inter, Arial, sans-serif" font-size="13" fill="#d1d5db" font-weight="600">Launchpad</text>
        
          <rect x="44" y="186" width="144" height="34" rx="8" fill="#111827" stroke="#374151"/>
          <circle cx="62" cy="203" r="5" fill="#6b7280"/>
          <text x="76" y="208" font-family="Inter, Arial, sans-serif" font-size="13" fill="#d1d5db" font-weight="600">Dashboard</text>
        
          <rect x="44" y="234" width="144" height="34" rx="8" fill="#111827" stroke="#374151"/>
          <circle cx="62" cy="251" r="5" fill="#6b7280"/>
          <text x="76" y="256" font-family="Inter, Arial, sans-serif" font-size="13" fill="#d1d5db" font-weight="600">Conversations</text>
        
          <rect x="44" y="282" width="144" height="34" rx="8" fill="#111827" stroke="#374151"/>
          <circle cx="62" cy="299" r="5" fill="#6b7280"/>
          <text x="76" y="304" font-family="Inter, Arial, sans-serif" font-size="13" fill="#d1d5db" font-weight="600">Contacts</text>
        
          <rect x="44" y="330" width="144" height="34" rx="8" fill="#111827" stroke="#374151"/>
          <circle cx="62" cy="347" r="5" fill="#6b7280"/>
          <text x="76" y="352" font-family="Inter, Arial, sans-serif" font-size="13" fill="#d1d5db" font-weight="600">Opportunities</text>
        
          <rect x="44" y="378" width="144" height="34" rx="8" fill="#111827" stroke="#374151"/>
          <circle cx="62" cy="395" r="5" fill="#6b7280"/>
          <text x="76" y="400" font-family="Inter, Arial, sans-serif" font-size="13" fill="#d1d5db" font-weight="600">Calendars</text>
        
          <rect x="44" y="426" width="144" height="34" rx="8" fill="#111827" stroke="#374151"/>
          <circle cx="62" cy="443" r="5" fill="#6b7280"/>
          <text x="76" y="448" font-family="Inter, Arial, sans-serif" font-size="13" fill="#d1d5db" font-weight="600">Sites</text>
        
          <rect x="44" y="474" width="144" height="34" rx="8" fill="#0ea5a3" stroke="#0ea5a3"/>
          <circle cx="62" cy="491" r="5" fill="#ffffff"/>
          <text x="76" y="496" font-family="Inter, Arial, sans-serif" font-size="13" fill="#ffffff" font-weight="800">Automation</text>
        
          <rect x="44" y="522" width="144" height="34" rx="8" fill="#111827" stroke="#374151"/>
          <circle cx="62" cy="539" r="5" fill="#6b7280"/>
          <text x="76" y="544" font-family="Inter, Arial, sans-serif" font-size="13" fill="#d1d5db" font-weight="600">Reporting</text>
        
          <rect x="44" y="570" width="144" height="34" rx="8" fill="#111827" stroke="#374151"/>
          <circle cx="62" cy="587" r="5" fill="#6b7280"/>
          <text x="76" y="592" font-family="Inter, Arial, sans-serif" font-size="13" fill="#d1d5db" font-weight="600">Settings</text>
        
  
    <rect x="240" y="24" width="936" height="672" rx="22" fill="#ffffff" stroke="#d7dde5"/>
    <text x="272" y="70" font-family="Inter, Arial, sans-serif" font-size="28" fill="#0f172a" font-weight="800">Workflow builder</text>
    <text x="272" y="100" font-family="Inter, Arial, sans-serif" font-size="14" fill="#64748b" font-weight="600">Trigger, actions, wait step, condition, and stop rule for a safe automation.</text>
    <rect x="1000" y="50" width="132" height="30" rx="15" fill="#fff7ed" stroke="#fed7aa"/><text x="1014" y="70" font-family="Inter, Arial, sans-serif" font-size="13" fill="#c2410c" font-weight="700">redacted demo</text>
    
      <rect x="282" y="140" width="240" height="70" rx="14" fill="#ecfdf5" stroke="#34d399"/> <text x="312" y="182" font-family="Inter, Arial, sans-serif" font-size="18" fill="#065f46" font-weight="800">Trigger: Missed call</text>
      <rect x="282" y="250" width="240" height="70" rx="14" fill="#eff6ff" stroke="#bfdbfe"/> <text x="312" y="292" font-family="Inter, Arial, sans-serif" font-size="18" fill="#1d4ed8" font-weight="800">Action: Send SMS</text>
      <rect x="282" y="360" width="240" height="70" rx="14" fill="#fff7ed" stroke="#fed7aa"/> <text x="312" y="402" font-family="Inter, Arial, sans-serif" font-size="18" fill="#c2410c" font-weight="800">Action: Create task</text>
      <rect x="602" y="250" width="220" height="70" rx="14" fill="#f8fafc" stroke="#d7dde5"/> <text x="632" y="292" font-family="Inter, Arial, sans-serif" font-size="18" fill="#334155" font-weight="800">Wait: 10 minutes</text>
      <rect x="902" y="232" width="160" height="108" rx="14" fill="#fdf2f8" stroke="#fbcfe8"/> <text x="930" y="270" font-family="Inter, Arial, sans-serif" font-size="20" fill="#be185d" font-weight="800">If/Else</text> <text x="930" y="302" font-family="Inter, Arial, sans-serif" font-size="14" fill="#be185d" font-weight="700">Did lead reply?</text>
      <rect x="862" y="398" width="230" height="70" rx="14" fill="#ecfdf5" stroke="#34d399"/> <text x="892" y="440" font-family="Inter, Arial, sans-serif" font-size="17" fill="#065f46" font-weight="800">Stop if booked/replied</text>
      <path d="M402 210v38 M402 320v38 M522 285h78 M822 285h78 M982 340v56" fill="none" stroke="#64748b" stroke-width="5" stroke-linecap="round"/>
      <text x="304" y="620" font-family="Inter, Arial, sans-serif" font-size="18" fill="#334155" font-weight="700">Practice focus: every automation needs a clear stop rule and fake-data test.</text>
    
    <text x="272" y="668" font-family="Inter, Arial, sans-serif" font-size="14" fill="#64748b" font-weight="600">Training mockup. Replace this SVG with a redacted real GHL screenshot when available.</text>
  </svg>